<svg width="512" height="512" version="1.1" xmlns="http://www.w3.org/2000/svg" desc="Created with imagetracer.js version 1.2.6" ><path fill="rgb(254,218,2)" stroke="rgb(254,218,2)" stroke-width="1" opacity="0.996078431372549" d="M 77.5 0 L 84 0.5 L 77.5 1 L 77.5 0 Z " /><path fill="rgb(254,218,2)" stroke="rgb(254,218,2)" stroke-width="1" opacity="0.996078431372549" d="M 428.5 0 L 435 0.5 L 428.5 1 L 428.5 0 Z " /><path fill="rgb(254,218,2)" stroke="rgb(254,218,2)" stroke-width="1" opacity="0.996078431372549" d="M 71.5 1 L 75 1.5 L 71.5 2 L 71.5 1 Z " /><path fill="rgb(254,218,2)" stroke="rgb(254,218,2)" stroke-width="1" opacity="0.996078431372549" d="M 437.5 1 L 441 1.5 L 437.5 2 L 437.5 1 Z " /><path fill="rgb(254,218,2)" stroke="rgb(254,218,2)" stroke-width="1" opacity="0.996078431372549" d="M 67.5 2 L 70 2.5 L 67.5 3 L 67.5 2 Z " /><path fill="rgb(254,218,2)" stroke="rgb(254,218,2)" stroke-width="1" opacity="0.996078431372549" d="M 78.5 2 L 433.5 2 L 447.5 5 L 464.5 12 L 463.5 10 L 462 9.5 L 463.5 9 L 476 17.5 L 474.5 17 L 470.5 15 L 473.5 19 L 491.5 35 L 492 33.5 L 482 22.5 L 490 29.5 Q 498.9 39.6 505 52.5 L 510 66.5 L 512 77.5 L 512 173 L 510 172.5 L 510 128.5 L 509.5 128 L 501.5 128 L 501 127.5 L 501 86.5 L 496 64.5 Q 492.1 53.4 485 45.5 Q 485.8 36.9 484 32 L 482 32 Q 483.1 29.3 480.5 30 L 479.5 27 L 478 27.5 L 478 25 L 471.5 25 L 469.5 25 L 465.5 26 Q 458 19.5 447.5 16 L 426.5 11 L 308.5 11 Q 304.3 3.7 290.5 6 L 283.5 11 L 109.5 11 L 107 13.5 L 107 35.5 L 102 58.5 Q 93.7 78.7 77.5 91 Q 66.3 100.3 50.5 105 L 39.5 107 L 13.5 107 L 11 109.5 L 11 121 L 2.5 121 L 2 121.5 L 2 165.5 L 1 166.5 L 0.5 175 L 0 76.5 Q 6.3 42.8 27.5 24 Q 35.9 15.4 47.5 10 L 47.5 12 L 55 8.5 L 53 7.5 L 65.5 3 L 65.5 4 L 55 7.5 L 57.5 8 L 64.5 5 L 78.5 2 Z M 46 12 L 44 13 L 43 15 L 47 13 L 46 12 Z M 466 12 L 469 15 L 470 15 L 466 12 Z M 41 15 L 40 17 L 42 16 L 41 15 Z M 38 17 L 36 20 L 39 18 L 38 17 Z M 34 20 L 30 25 L 35 21 L 34 20 Z M 44 26 L 35 29 L 30 35 L 30 73 L 33 81 L 40 84 L 45 84 L 50 87 L 58 89 L 67 89 L 79 84 Q 83 85 82 82 L 87 81 L 89 75 L 87 72 L 89 68 Q 90 58 87 53 L 87 41 L 84 35 Q 80 28 72 27 Q 67 28 66 26 L 44 26 Z M 24 30 L 20 35 L 24 32 L 24 30 Z M 17 39 L 15 42 L 17 41 L 17 39 Z M 496 39 L 495 41 L 497 42 L 496 39 Z " /><path fill="rgb(254,218,2)" stroke="rgb(254,218,2)" stroke-width="1" opacity="0.996078431372549" d="M 442.5 2 L 445 2.5 L 442.5 3 L 442.5 2 Z " /><path fill="rgb(254,218,2)" stroke="rgb(254,218,2)" stroke-width="1" opacity="0.996078431372549" d="M 446.5 3 L 459 7.5 L 457.5 8 L 446.5 4 L 446.5 3 Z " /><path fill="rgb(254,218,2)" stroke="rgb(254,218,2)" stroke-width="1" opacity="0.996078431372549" d="M 294.5 18 L 297.5 18 L 495 215.5 L 496 217.5 L 494.5 220 L 377.5 104 L 377 105.5 L 385 128.5 L 388.5 153 L 389.5 152 L 392.5 155 L 394.5 154 L 398 158.5 Q 395.5 160 399 161.5 L 398 166.5 L 399 168.5 L 399 170.5 L 397 176 L 395.5 176 L 366.5 147 L 364.5 147 L 310.5 202 L 280 231.5 L 262.5 250 L 255.5 256 L 233.5 256 L 232.5 255 L 221.5 255 Q 217.5 263 213.5 255 L 164.5 251 L 157.5 249 L 150.5 249 L 121.5 244 L 97 219.5 L 97 215.5 L 294.5 18 Z M 298 26 L 298 27 L 300 27 L 298 26 Z M 288 95 L 282 101 Q 275 101 273 104 Q 269 103 270 106 Q 265 107 262 112 Q 263 114 261 113 L 254 124 L 253 130 L 246 137 L 246 139 L 250 143 L 249 145 L 253 150 L 256 158 Q 255 160 258 159 L 258 162 L 265 167 Q 267 166 266 169 L 277 173 L 280 176 L 284 176 L 288 180 L 292 176 L 302 174 L 313 163 L 314 163 L 321 153 L 322 146 L 330 138 L 319 126 L 314 115 L 312 113 L 310 111 L 304 106 Q 301 107 302 104 L 297 103 L 288 95 Z M 371 97 L 370 99 L 379 120 L 383 137 L 385 153 L 387 152 L 386 140 L 382 122 L 376 105 L 371 97 Z M 216 167 L 212 171 Q 204 170 202 174 Q 198 173 199 176 Q 194 177 191 182 Q 192 184 190 183 L 183 194 L 182 201 L 173 210 L 179 216 L 179 220 L 185 228 Q 184 230 187 229 L 187 232 L 194 237 Q 196 236 195 239 Q 202 241 207 246 L 210 246 L 216 252 L 222 246 Q 229 246 234 242 L 247 229 L 251 220 L 251 217 L 258 210 L 249 201 Q 248 191 243 185 L 241 183 L 239 181 L 233 176 Q 230 177 231 174 Q 220 174 216 167 Z " /><path fill="rgb(254,218,2)" stroke="rgb(254,218,2)" stroke-width="1" opacity="0.996078431372549" d="M 477.5 18 L 480.5 22 L 477.5 18 Z " /><path fill="rgb(254,218,2)" stroke="rgb(254,218,2)" stroke-width="1" opacity="0.996078431372549" d="M 11 172 L 15 172.5 L 15 211 L 11 210.5 L 11 172 Z " /><path fill="rgb(254,218,2)" stroke="rgb(254,218,2)" stroke-width="1" opacity="0.996078431372549" d="M 497 172 L 501 172.5 L 501 201.5 L 498.5 200 L 497 199.5 L 497 172 Z " /><path fill="rgb(254,218,2)" stroke="rgb(254,218,2)" stroke-width="1" opacity="0.996078431372549" d="M 402.5 189 L 407 194.5 L 375 226.5 L 365 247 L 363 246.5 L 372 230.5 L 367 234.5 L 360 248 L 351.5 249 L 266.5 333 L 228 294.5 L 229 293.5 Q 228.3 291.3 230.5 292 L 265.5 326 L 329.5 263 L 342.5 251 L 348 248.5 L 364 227.5 L 402.5 189 Z " /><path fill="rgb(2,44,56)" stroke="rgb(2,44,56)" stroke-width="1" opacity="1" d="M 119 25 L 269 25.5 L 183.5 112 L 113 111.5 L 114.5 110 L 184.5 110 L 199 95.5 L 115 95 Q 116.3 99.1 113 98 L 113 80.5 L 111 70.5 L 115 62.5 L 118 51.5 L 119 25 Z " /><path fill="rgb(2,44,56)" stroke="rgb(2,44,56)" stroke-width="1" opacity="1" d="M 322.5 25 L 420.5 25 Q 449.1 29.9 465 47.5 Q 476.4 58.6 483 74.5 Q 486.8 83.4 487 95 L 448.5 95 L 448 98 L 446 98 L 446 62 L 420 62 L 420 111.5 L 419.5 112 L 408.5 112 L 322.5 25 Z M 397 95 L 398 98 L 397 99 L 398 101 L 408 110 L 417 110 L 417 95 L 397 95 Z " /><path fill="rgb(2,44,56)" stroke="rgb(2,44,56)" stroke-width="1" opacity="1" d="M 88.5 99 L 90 99.5 L 90 136 L 88 135.5 L 88 101.5 Q 85.8 100.3 88.5 99 Z " /><path fill="rgb(2,44,56)" stroke="rgb(2,44,56)" stroke-width="1" opacity="1" d="M 368.5 166 L 387.5 186 L 368.5 166 Z " /><path fill="rgb(2,44,56)" stroke="rgb(2,44,56)" stroke-width="1" opacity="1" d="M 361.5 167 L 303.5 226 L 361.5 167 Z " /><path fill="rgb(2,44,56)" stroke="rgb(2,44,56)" stroke-width="1" opacity="1" d="M 467.5 170 L 468.5 172 L 467.5 170 Z " /><path fill="rgb(2,44,56)" stroke="rgb(2,44,56)" stroke-width="1" opacity="1" d="M 84.5 214 L 85 219.5 L 84 219.5 L 84.5 214 Z " /><path fill="rgb(2,44,56)" stroke="rgb(2,44,56)" stroke-width="1" opacity="1" d="M 88.5 228 L 89.5 230 L 88.5 228 Z " /><path fill="rgb(2,44,56)" stroke="rgb(2,44,56)" stroke-width="1" opacity="1" d="M 100.5 240 L 284.5 425 L 100.5 240 Z " /><path fill="rgb(2,44,56)" stroke="rgb(2,44,56)" stroke-width="1" opacity="1" d="M 487.5 244 L 488 254.5 L 487 254.5 L 486.5 246 L 440 291.5 L 487.5 244 Z " /><path fill="rgb(2,44,56)" stroke="rgb(2,44,56)" stroke-width="1" opacity="1" d="M 248.5 280 L 242.5 287 L 248.5 280 Z " /><path fill="rgb(2,44,56)" stroke="rgb(2,44,56)" stroke-width="1" opacity="1" d="M 249.5 294 L 252.5 298 L 249.5 294 Z " /><path fill="rgb(2,44,56)" stroke="rgb(2,44,56)" stroke-width="1" opacity="1" d="M 419.5 312 L 361.5 371 L 419.5 312 Z " /><path fill="rgb(2,44,56)" stroke="rgb(2,44,56)" stroke-width="1" opacity="1" d="M 44.5 372 L 48 381 L 89.5 381 L 90 382.5 Q 91.5 385.5 93 382.5 Q 92.5 378 93.5 378 L 108.5 378 L 111.5 373 L 112.5 374 L 115 372.5 L 120 383.5 L 122 400.5 L 123 401.5 L 122 406 L 113.5 406 L 113 403.5 L 112 400 L 93 400 L 93 409.5 L 91.5 414 L 90 406 L 37.5 406 L 36 404.5 L 38 384.5 L 44.5 372 Z " /><path fill="rgb(254,243,81)" stroke="rgb(254,243,81)" stroke-width="1" opacity="0.996078431372549" d="M 109.5 11 L 283 11.5 L 279.5 15 L 111 15 L 110 44.5 L 107 56.5 Q 99.3 78.8 82.5 92 Q 70.4 102.9 52.5 108 L 43.5 110 L 15.5 110 L 11.5 111 L 13 108.5 L 13.5 107 L 42.5 107 Q 71.7 101.2 87 81.5 L 85.5 81 L 80.5 84 L 69.5 84 Q 66.5 87 59.5 86 L 56.5 85 L 50.5 83 L 49.5 84 L 39.5 84 L 32 78.5 L 30 70.5 L 30 35.5 L 34.5 29 Q 45.3 23.8 63.5 26 L 74.5 28 L 84 34.5 Q 88.3 39.6 87 50.5 L 84 58.5 L 85 63.5 L 84 65.5 L 88 72.5 L 88 77.5 L 87 80.5 L 91 77.5 Q 99.6 67.6 104 53.5 L 107 38.5 L 107 13.5 L 109.5 11 Z M 50 28 L 49 29 L 40 29 L 34 31 L 32 39 L 32 72 L 34 79 L 38 81 L 54 81 L 56 80 L 60 75 Q 62 68 59 67 L 61 66 L 66 79 L 69 81 L 83 81 L 85 80 L 86 78 Q 86 65 78 60 Q 77 57 80 58 Q 84 55 85 50 Q 86 40 82 36 Q 78 30 71 29 L 66 28 L 50 28 Z " /><path fill="rgb(254,243,81)" stroke="rgb(254,243,81)" stroke-width="1" opacity="0.996078431372549" d="M 308.5 11 L 423.5 11 Q 425.3 13.8 431.5 12 L 452.5 18 L 473.5 32 L 477 32 L 477 35.5 L 489 50.5 L 498 71.5 L 500 80.5 L 500 88.5 L 501 89.5 L 501 112 L 497 111.5 L 497 95.5 L 498 93.5 L 497 92.5 L 497 82.5 L 495 73.5 L 487 55.5 Q 478.8 42.8 467.5 33 Q 458.5 25 446.5 20 L 426.5 15 L 311.5 15 L 308.5 11 Z " /><path fill="rgb(254,243,81)" stroke="rgb(254,243,81)" stroke-width="1" opacity="0.996078431372549" d="M 482.5 24 L 483.5 26 L 482.5 24 Z " /><path fill="rgb(254,243,81)" stroke="rgb(254,243,81)" stroke-width="1" opacity="0.996078431372549" d="M 65.5 40 L 71 43.5 Q 72 49 68.5 50 L 60.5 51 L 56 47.5 Q 55 42 58.5 41 Q 64 42.5 65.5 40 Z " /><path fill="rgb(254,243,81)" stroke="rgb(254,243,81)" stroke-width="1" opacity="0.996078431372549" d="M 267.5 113 L 269 113.5 L 262 119.5 L 264 116.5 L 267.5 113 Z " /><path fill="rgb(254,243,81)" stroke="rgb(254,243,81)" stroke-width="1" opacity="0.996078431372549" d="M 255.5 148 L 276.5 170 L 273.5 170 L 264 162 L 256 152.5 L 255.5 148 Z " /><path fill="rgb(254,243,81)" stroke="rgb(254,243,81)" stroke-width="1" opacity="0.996078431372549" d="M 316.5 151 L 317 153 Q 314.3 151.9 315 154.5 L 308.5 164 L 302 167 Q 303.1 169.7 300.5 169 L 298.5 170 L 316.5 151 Z " /><path fill="rgb(254,243,81)" stroke="rgb(254,243,81)" stroke-width="1" opacity="0.996078431372549" d="M 204.5 177 L 190.5 192 L 191 190.5 L 191 188.5 L 195.5 183 L 199 182 Q 197.9 179.3 200.5 180 L 204.5 177 Z " /><path fill="rgb(254,243,81)" stroke="rgb(254,243,81)" stroke-width="1" opacity="0.996078431372549" d="M 229.5 179 Q 232.4 183.3 238 184 Q 238.4 190.2 243 193.5 L 237 188.5 L 229.5 179 Z " /><path fill="rgb(254,243,81)" stroke="rgb(254,243,81)" stroke-width="1" opacity="0.996078431372549" d="M 185.5 222 L 202.5 240 L 191 231.5 L 185.5 222 Z " /><path fill="rgb(254,243,81)" stroke="rgb(254,243,81)" stroke-width="1" opacity="0.996078431372549" d="M 243.5 224 L 243 225.5 L 237.5 234 L 231 237 Q 232.1 239.7 229.5 239 L 228 239.5 L 243.5 224 Z " /><path fill="rgb(254,243,81)" stroke="rgb(254,243,81)" stroke-width="1" opacity="0.996078431372549" d="M 496.5 434 Q 499.3 433.4 498 439.5 Q 490.2 467.7 469.5 483 L 449.5 495 L 432.5 500 Q 426.3 498.3 424.5 501 L 87.5 501 L 71.5 498 L 56.5 492 Q 42.5 484 32 472.5 Q 20 459.8 15 441 Q 18.7 439.5 18 442.5 Q 26.1 465.4 43.5 479 Q 58.3 492.7 82.5 497 L 429.5 497 Q 443.2 494.7 453.5 489 Q 466.9 481.4 477 470.5 L 488 455.5 L 496.5 434 Z " /><path fill="rgb(3,65,85)" stroke="rgb(3,65,85)" stroke-width="1" opacity="1" d="M 420 62 L 446 62 L 446 97.5 L 448 98 L 448.5 95 L 487 95 L 487 155.5 L 488 156.5 L 488 169.5 L 487 172 L 469.5 172 L 466.5 170 L 409 112.5 L 420 112 L 420 62 Z M 423 121 L 427 127 L 426 128 L 428 131 L 446 148 L 446 121 L 423 121 Z M 467 165 L 471 170 L 487 170 L 487 165 L 467 165 Z " /><path fill="rgb(3,65,85)" stroke="rgb(3,65,85)" stroke-width="1" opacity="1" d="M 111.5 71 L 112 79.5 L 113 80.5 L 113 98 L 115 98 L 115.5 95 L 198.5 95 L 184.5 110 L 114.5 110 L 113 111.5 L 183 112.5 L 112 182.5 L 128.5 165 L 115 165 L 115 173.5 L 113 174 L 112 130 L 164.5 130 L 173 121.5 L 91 121 L 90 203.5 Q 92.7 205.3 88.5 207 L 88 165 L 25 165 L 25 119 L 46.5 119 L 59.5 116 Q 76.1 110.3 88 101 L 88 135.5 L 90 136 L 90 98.5 Q 103.3 87.3 111.5 71 Z " /><path fill="rgb(3,65,85)" stroke="rgb(3,65,85)" stroke-width="1" opacity="1" d="M 396.5 95 L 417 95 L 417 110 L 407.5 110 L 398 100.5 L 397 98.5 L 398 97.5 L 396.5 95 Z " /><path fill="rgb(3,65,85)" stroke="rgb(3,65,85)" stroke-width="1" opacity="1" d="M 25 219 L 53.5 229 L 87.5 238 L 89.5 237 L 91 238.5 L 91 247.5 L 90 248.5 L 89.5 287 L 88 285.5 L 88 245 L 25 245 L 25 219 Z " /><path fill="rgb(3,65,85)" stroke="rgb(3,65,85)" stroke-width="1" opacity="1" d="M 88.5 229 L 100 239.5 L 90 231.5 L 89.5 233 L 88.5 229 Z " /><path fill="rgb(3,65,85)" stroke="rgb(3,65,85)" stroke-width="1" opacity="1" d="M 486.5 246 L 487 254.5 L 488 255.5 L 488 311.5 L 487 311.5 L 487 262.5 L 485.5 262 L 441.5 303 L 441 291.5 L 486.5 246 Z " /><path fill="rgb(3,65,85)" stroke="rgb(3,65,85)" stroke-width="1" opacity="1" d="M 112.5 253 L 153.5 295 L 115.5 260 Q 114.3 262.3 113 259.5 L 112.5 253 Z " /><path fill="rgb(3,65,85)" stroke="rgb(3,65,85)" stroke-width="1" opacity="1" d="M 273.5 255 L 249.5 280 L 273.5 255 Z " /><path fill="rgb(3,65,85)" stroke="rgb(3,65,85)" stroke-width="1" opacity="1" d="M 439.5 292 L 420.5 312 L 439.5 292 Z " /><path fill="rgb(3,65,85)" stroke="rgb(3,65,85)" stroke-width="1" opacity="1" d="M 25 294 L 64.5 294 L 65 296 L 25.5 296 L 25 294 Z " /><path fill="rgb(3,65,85)" stroke="rgb(3,65,85)" stroke-width="1" opacity="1" d="M 253.5 298 L 263.5 309 L 253.5 298 Z " /><path fill="rgb(3,65,85)" stroke="rgb(3,65,85)" stroke-width="1" opacity="1" d="M 419.5 313 L 420 324.5 L 418.5 330 L 416.5 324 L 407.5 330 L 403.5 330 L 419.5 313 Z " /><path fill="rgb(3,65,85)" stroke="rgb(3,65,85)" stroke-width="1" opacity="1" d="M 360.5 371 L 307.5 425 L 360.5 371 Z " /><path fill="rgb(3,65,85)" stroke="rgb(3,65,85)" stroke-width="1" opacity="1" d="M 24.5 379 L 25 381.5 L 24 381.5 L 24.5 379 Z " /><path fill="rgb(3,65,85)" stroke="rgb(3,65,85)" stroke-width="1" opacity="1" d="M 120.5 384 L 125 393.5 L 126 403.5 L 130 417.5 L 130 419.5 L 129.5 421 L 115.5 421 L 113 422 L 112 412 L 93 412 L 93 425.5 L 91.5 429 L 90 421 L 29.5 421 Q 28.3 420.8 29 414.5 L 32 406.5 L 34 392.5 L 37.5 386 L 38 391.5 L 36 398.5 L 36 404.5 L 37.5 406 L 90 406 L 91.5 414 Q 94.3 408.6 93 400 L 111.5 400 L 112 402.5 L 113 406 L 122 406 L 122 402.5 L 122 400.5 L 120.5 384 Z " /><path fill="rgb(3,65,85)" stroke="rgb(3,65,85)" stroke-width="1" opacity="1" d="M 24.5 411 L 25 413.5 L 24 413.5 L 24.5 411 Z " /><path fill="rgb(252,210,39)" stroke="rgb(252,210,39)" stroke-width="1" opacity="1" d="M 84.5 0 L 427.5 0 L 428.5 1 L 441.5 2 L 459.5 8 Q 476.4 15.6 488 28.5 L 500 46.5 L 499 46.5 L 493 36.5 L 480.5 23 L 479.5 24 L 474.5 19 L 458.5 9 L 447.5 5 L 433.5 2 L 78.5 2 Q 43.1 8.1 24 30.5 L 12.5 47 L 12 45.5 Q 20.4 30.4 33.5 20 Q 43.7 11.2 57.5 6 L 70.5 2 L 83.5 1 L 84.5 0 Z " /><path fill="rgb(252,210,39)" stroke="rgb(252,210,39)" stroke-width="1" opacity="1" d="M 424.5 11 L 427 11.5 L 424.5 12 L 424.5 11 Z " /><path fill="rgb(252,210,39)" stroke="rgb(252,210,39)" stroke-width="1" opacity="1" d="M 424.5 15 L 427 15.5 L 424.5 16 L 424.5 15 Z " /><path fill="rgb(252,210,39)" stroke="rgb(252,210,39)" stroke-width="1" opacity="1" d="M 470.5 24 L 471.5 25 L 478 25 L 478.5 28 Q 479.8 25.8 481 28.5 L 480.5 30 Q 483.1 29.3 482 32 L 484 32 L 484 35.5 L 485 36.5 L 485 44.5 L 484 44.5 L 477 35.5 L 477 32 L 473.5 32 L 466 27 Q 464.7 23.7 469.5 25 L 470.5 24 Z " /><path fill="rgb(252,210,39)" stroke="rgb(252,210,39)" stroke-width="1" opacity="1" d="M 79.5 30 L 80.5 32 L 79.5 30 Z " /><path fill="rgb(252,210,39)" stroke="rgb(252,210,39)" stroke-width="1" opacity="1" d="M 110.5 35 L 111 38.5 L 110 38.5 L 110.5 35 Z " /><path fill="rgb(252,210,39)" stroke="rgb(252,210,39)" stroke-width="1" opacity="1" d="M 106.5 36 L 107 38.5 L 106 38.5 L 106.5 36 Z " /><path fill="rgb(252,210,39)" stroke="rgb(252,210,39)" stroke-width="1" opacity="1" d="M 86.5 51 Q 90.4 56.6 89 67.5 L 88 71 Q 85 72.3 86 68.5 L 84 64.5 L 85 59.5 L 84 56.5 L 86.5 51 Z " /><path fill="rgb(252,210,39)" stroke="rgb(252,210,39)" stroke-width="1" opacity="1" d="M 50.5 83 L 57.5 86 L 59.5 86 Q 66.5 87 69.5 84 L 77.5 84 L 77.5 85 L 66.5 89 L 57.5 89 L 45 84.5 L 50.5 83 Z " /><path fill="rgb(252,210,39)" stroke="rgb(252,210,39)" stroke-width="1" opacity="1" d="M 500.5 86 L 501 88.5 L 500 88.5 L 500.5 86 Z " /><path fill="rgb(252,210,39)" stroke="rgb(252,210,39)" stroke-width="1" opacity="1" d="M 81.5 92 L 80.5 94 L 81.5 92 Z " /><path fill="rgb(252,210,39)" stroke="rgb(252,210,39)" stroke-width="1" opacity="1" d="M 278.5 101 L 281 101.5 L 269.5 113 Q 264.5 112.5 264 116.5 Q 264.7 119.1 262 118 L 262 120.5 L 253 128.5 L 254 123.5 L 260.5 113 Q 262.8 113.8 262 111.5 Q 264.6 106.6 270 106 Q 268.8 103 272.5 104 L 278.5 101 Z " /><path fill="rgb(252,210,39)" stroke="rgb(252,210,39)" stroke-width="1" opacity="1" d="M 297.5 103 L 302 104 Q 300.9 106.7 303.5 106 L 310 110.5 L 311.5 113 L 314 114.5 L 319 124.5 L 297.5 103 Z " /><path fill="rgb(252,210,39)" stroke="rgb(252,210,39)" stroke-width="1" opacity="1" d="M 40.5 106 L 43 106.5 L 40.5 107 L 40.5 106 Z " /><path fill="rgb(252,210,39)" stroke="rgb(252,210,39)" stroke-width="1" opacity="1" d="M 12.5 108 L 11.5 110 L 12.5 108 Z " /><path fill="rgb(252,210,39)" stroke="rgb(252,210,39)" stroke-width="1" opacity="1" d="M 15.5 110 L 38 110.5 L 15 111 L 15 171.5 L 11 172 L 11 111.5 L 14.5 111 L 15.5 110 Z " /><path fill="rgb(252,210,39)" stroke="rgb(252,210,39)" stroke-width="1" opacity="1" d="M 497 112 L 501 112.5 L 501 172 L 497 171.5 L 497 112 Z " /><path fill="rgb(252,210,39)" stroke="rgb(252,210,39)" stroke-width="1" opacity="1" d="M 250.5 143 Q 255.8 145.3 256 152.5 L 264 162 L 273.5 170 L 277.5 170 L 283 175.5 L 279.5 176 L 276.5 173 L 266 169 Q 267.1 166.3 264.5 167 L 258 161.5 L 258 159 Q 255.3 160.1 256 157.5 L 253 149.5 L 249 144.5 L 250.5 143 Z " /><path fill="rgb(252,210,39)" stroke="rgb(252,210,39)" stroke-width="1" opacity="1" d="M 321.5 146 L 322 149.5 L 319 156.5 L 314 163 L 312.5 163 L 301.5 174 L 292.5 176 L 297.5 170 L 302 169 Q 300.9 166.3 303.5 167 L 310 162.5 L 315 153 Q 318 154.3 317 150.5 L 321.5 146 Z " /><path fill="rgb(252,210,39)" stroke="rgb(252,210,39)" stroke-width="1" opacity="1" d="M 1.5 166 L 2 209.5 L 0 208.5 L 0 175.5 L 1 174.5 L 1.5 166 Z " /><path fill="rgb(252,210,39)" stroke="rgb(252,210,39)" stroke-width="1" opacity="1" d="M 207.5 171 L 211 171.5 Q 206.6 177.9 199 180 Q 200.1 182.7 197.5 182 L 193 185.5 Q 190.3 195.3 182.5 200 L 182 198.5 L 183 193.5 L 189.5 183 Q 191.8 183.8 191 181.5 Q 193.6 176.7 199 176 Q 197.8 173 201.5 174 L 207.5 171 Z " /><path fill="rgb(252,210,39)" stroke="rgb(252,210,39)" stroke-width="1" opacity="1" d="M 220.5 171 L 231 174 Q 229.9 176.7 232.5 176 L 239 180.5 L 240.5 183 L 243 184.5 Q 247.7 190.3 249 199.5 L 243 194.5 L 239 188.5 L 238 184 L 232.5 182 L 236.5 188 L 220.5 171 Z " /><path fill="rgb(252,210,39)" stroke="rgb(252,210,39)" stroke-width="1" opacity="1" d="M 510 173 L 512 173.5 L 512 206.5 L 510 207.5 L 510 173 Z " /><path fill="rgb(252,210,39)" stroke="rgb(252,210,39)" stroke-width="1" opacity="1" d="M 309.5 202 L 280.5 232 L 309.5 202 Z " /><path fill="rgb(252,210,39)" stroke="rgb(252,210,39)" stroke-width="1" opacity="1" d="M 179.5 216 L 193.5 234 L 203.5 240 L 209 245.5 L 206.5 246 Q 202.1 240.6 195 239 Q 196.1 236.3 193.5 237 L 187 231.5 L 187 229 Q 184.3 230.1 185 227.5 L 179 219.5 L 179.5 216 Z " /><path fill="rgb(252,210,39)" stroke="rgb(252,210,39)" stroke-width="1" opacity="1" d="M 250.5 217 L 251 219.5 L 247 228.5 L 233.5 242 L 222.5 246 L 227.5 240 L 231 239 Q 229.9 236.3 232.5 237 L 239 232.5 L 244 223 Q 246.7 224.1 246 221.5 L 250.5 217 Z " /><path fill="rgb(252,210,39)" stroke="rgb(252,210,39)" stroke-width="1" opacity="1" d="M 363.5 228 L 360 232.5 L 346.5 250 L 342.5 251 L 311.5 281 L 363.5 228 Z " /><path fill="rgb(252,210,39)" stroke="rgb(252,210,39)" stroke-width="1" opacity="1" d="M 11 360 L 15 360.5 L 15 428.5 L 18 441 Q 12.8 443.1 14 438.5 L 11 424.5 L 11 360 Z " /><path fill="rgb(252,210,39)" stroke="rgb(252,210,39)" stroke-width="1" opacity="1" d="M 497 360 L 501 360.5 L 501 424.5 L 498.5 438 L 498 434 L 495.5 435 L 496 433.5 L 497 428.5 L 497 360 Z " /><path fill="rgb(252,210,39)" stroke="rgb(252,210,39)" stroke-width="1" opacity="1" d="M 26.5 465 L 27.5 467 L 26.5 465 Z " /><path fill="rgb(252,210,39)" stroke="rgb(252,210,39)" stroke-width="1" opacity="1" d="M 31.5 466 L 32.5 468 L 31.5 466 Z " /><path fill="rgb(252,210,39)" stroke="rgb(252,210,39)" stroke-width="1" opacity="1" d="M 484.5 467 L 483.5 469 L 484.5 467 Z " /><path fill="rgb(252,210,39)" stroke="rgb(252,210,39)" stroke-width="1" opacity="1" d="M 30.5 470 L 31.5 472 L 30.5 470 Z " /><path fill="rgb(252,210,39)" stroke="rgb(252,210,39)" stroke-width="1" opacity="1" d="M 479.5 473 L 476.5 477 L 479.5 473 Z " /><path fill="rgb(252,210,39)" stroke="rgb(252,210,39)" stroke-width="1" opacity="1" d="M 36.5 476 L 42.5 483 L 36.5 476 Z " /><path fill="rgb(252,210,39)" stroke="rgb(252,210,39)" stroke-width="1" opacity="1" d="M 468.5 483 L 467.5 485 L 468.5 483 Z " /><path fill="rgb(252,210,39)" stroke="rgb(252,210,39)" stroke-width="1" opacity="1" d="M 45.5 484 L 46.5 486 L 45.5 484 Z " /><path fill="rgb(252,210,39)" stroke="rgb(252,210,39)" stroke-width="1" opacity="1" d="M 84.5 500 L 87 500.5 L 84.5 501 L 84.5 500 Z " /><path fill="rgb(252,210,39)" stroke="rgb(252,210,39)" stroke-width="1" opacity="1" d="M 425.5 500 L 428 500.5 L 425.5 501 L 425.5 500 Z " /><path fill="rgb(0,0,0)" stroke="rgb(0,0,0)" stroke-width="1" opacity="0" d="M 0 0 L 77 0.5 L 63.5 3 L 46.5 10 Q 32.5 18 22 29.5 Q 13.1 39.6 7 52.5 L 2 66.5 L 0.5 76 L 0 0 Z " /><path fill="rgb(0,0,0)" stroke="rgb(0,0,0)" stroke-width="1" opacity="0" d="M 435.5 0 L 512 0 L 512 75.5 L 511 75.5 L 510 66.5 L 502 46.5 Q 494 32.5 482.5 22 L 463.5 9 L 448.5 3 L 435.5 1 L 435.5 0 Z " /><path fill="rgb(0,0,0)" stroke="rgb(0,0,0)" stroke-width="1" opacity="0" d="M 0.5 436 Q 6.5 470.5 28.5 489 Q 46.2 506.8 77 511.5 L 0 512 L 0.5 436 Z " /><path fill="rgb(0,0,0)" stroke="rgb(0,0,0)" stroke-width="1" opacity="0" d="M 511.5 436 L 512 512 L 435 511.5 L 448.5 509 L 465.5 502 Q 479.5 494 490 482.5 Q 498.9 472.4 505 459.5 L 510 445.5 L 511.5 436 Z " /><path fill="rgb(113,242,250)" stroke="rgb(113,242,250)" stroke-width="1" opacity="1" d="M 287.5 110 L 315 137.5 L 287.5 165 L 260 137.5 L 287.5 110 Z " /><path fill="rgb(113,242,250)" stroke="rgb(113,242,250)" stroke-width="1" opacity="1" d="M 369.5 169 L 387 185.5 L 379 195.5 L 282.5 292 L 266.5 307 L 264.5 307 Q 255.7 303.3 251 295.5 L 252 292.5 L 253 288.5 L 262 274.5 L 262 272.5 L 265 264.5 L 354.5 175 L 357.5 175 L 364.5 170 L 366.5 171 L 369.5 169 Z " /><path fill="rgb(113,242,250)" stroke="rgb(113,242,250)" stroke-width="1" opacity="1" d="M 215.5 182 L 243 209.5 L 215.5 237 L 201 223.5 L 188 209.5 L 215.5 182 Z " /><path fill="rgb(113,242,250)" stroke="rgb(113,242,250)" stroke-width="1" opacity="1" d="M 79.5 284 L 86 297 L 89 298.5 L 112 343.5 L 113 349.5 L 126 372.5 L 158.5 438 L 160 438 L 160.5 441 L 421.5 441 L 422.5 442 L 438 442 L 437.5 445 L 424.5 445 L 423.5 446 L 156.5 446 L 151.5 448 L 93.5 448 Q 92 444.5 90.5 447 L 34.5 447 L 33 445.5 L 29 436.5 L 112.5 435 L 113.5 436 L 145.5 436 L 145 434.5 Q 113.9 366.6 79.5 302 L 25.5 409 L 25 387.5 L 61 319.5 L 60 317.5 L 67 303.5 L 79.5 284 Z " /><path fill="rgb(77,47,11)" stroke="rgb(77,47,11)" stroke-width="1" opacity="1" d="M 279.5 15 L 270.5 25 L 119 24.5 L 270.5 24 L 279.5 15 Z " /><path fill="rgb(77,47,11)" stroke="rgb(77,47,11)" stroke-width="1" opacity="1" d="M 293.5 18 L 97.5 215 L 293.5 18 Z " /><path fill="rgb(77,47,11)" stroke="rgb(77,47,11)" stroke-width="1" opacity="1" d="M 298.5 18 L 395.5 116 L 298.5 18 Z " /><path fill="rgb(77,47,11)" stroke="rgb(77,47,11)" stroke-width="1" opacity="1" d="M 321.5 24 L 417 24.5 L 321.5 25 L 321.5 24 Z " /><path fill="rgb(77,47,11)" stroke="rgb(77,47,11)" stroke-width="1" opacity="1" d="M 421.5 25 L 425 25.5 L 421.5 26 L 421.5 25 Z " /><path fill="rgb(77,47,11)" stroke="rgb(77,47,11)" stroke-width="1" opacity="1" d="M 427.5 26 L 430 26.5 L 427.5 27 L 427.5 26 Z " /><path fill="rgb(77,47,11)" stroke="rgb(77,47,11)" stroke-width="1" opacity="1" d="M 52.5 28 L 59 28.5 L 52.5 29 L 52.5 28 Z " /><path fill="rgb(77,47,11)" stroke="rgb(77,47,11)" stroke-width="1" opacity="1" d="M 118.5 39 L 119 44.5 L 118 44.5 L 118.5 39 Z " /><path fill="rgb(77,47,11)" stroke="rgb(77,47,11)" stroke-width="1" opacity="1" d="M 58.5 40 L 56.5 43 L 58.5 40 Z " /><path fill="rgb(77,47,11)" stroke="rgb(77,47,11)" stroke-width="1" opacity="1" d="M 32.5 41 L 33 46.5 L 32 46.5 L 32.5 41 Z " /><path fill="rgb(77,47,11)" stroke="rgb(77,47,11)" stroke-width="1" opacity="1" d="M 458.5 41 L 460.5 44 L 458.5 41 Z " /><path fill="rgb(77,47,11)" stroke="rgb(77,47,11)" stroke-width="1" opacity="1" d="M 84.5 43 L 85 47.5 L 84 47.5 L 84.5 43 Z " /><path fill="rgb(77,47,11)" stroke="rgb(77,47,11)" stroke-width="1" opacity="1" d="M 56.5 48 L 58.5 51 L 56.5 48 Z " /><path fill="rgb(77,47,11)" stroke="rgb(77,47,11)" stroke-width="1" opacity="1" d="M 70.5 48 L 69.5 50 L 70.5 48 Z " /><path fill="rgb(77,47,11)" stroke="rgb(77,47,11)" stroke-width="1" opacity="1" d="M 465.5 48 L 469.5 53 L 465.5 48 Z " /><path fill="rgb(77,47,11)" stroke="rgb(77,47,11)" stroke-width="1" opacity="1" d="M 117.5 49 L 118 51.5 L 117 51.5 L 117.5 49 Z " /><path fill="rgb(77,47,11)" stroke="rgb(77,47,11)" stroke-width="1" opacity="1" d="M 81.5 55 L 79.5 58 L 81.5 55 Z " /><path fill="rgb(77,47,11)" stroke="rgb(77,47,11)" stroke-width="1" opacity="1" d="M 79.5 61 L 80.5 63 L 79.5 61 Z " /><path fill="rgb(77,47,11)" stroke="rgb(77,47,11)" stroke-width="1" opacity="1" d="M 32.5 64 L 33 69.5 L 32 69.5 L 32.5 64 Z " /><path fill="rgb(77,47,11)" stroke="rgb(77,47,11)" stroke-width="1" opacity="1" d="M 66.5 78 L 67.5 80 L 66.5 78 Z " /><path fill="rgb(77,47,11)" stroke="rgb(77,47,11)" stroke-width="1" opacity="1" d="M 486.5 87 L 487 89.5 L 486 89.5 L 486.5 87 Z " /><path fill="rgb(77,47,11)" stroke="rgb(77,47,11)" stroke-width="1" opacity="1" d="M 99.5 88 L 97.5 91 L 99.5 88 Z " /><path fill="rgb(77,47,11)" stroke="rgb(77,47,11)" stroke-width="1" opacity="1" d="M 93.5 94 L 89.5 99 L 93.5 94 Z " /><path fill="rgb(77,47,11)" stroke="rgb(77,47,11)" stroke-width="1" opacity="1" d="M 287.5 95 L 266.5 117 L 287.5 95 Z " /><path fill="rgb(77,47,11)" stroke="rgb(77,47,11)" stroke-width="1" opacity="1" d="M 487.5 95 L 488 155.5 L 487 155.5 L 487.5 95 Z " /><path fill="rgb(77,47,11)" stroke="rgb(77,47,11)" stroke-width="1" opacity="1" d="M 84.5 102 L 83.5 104 L 84.5 102 Z " /><path fill="rgb(77,47,11)" stroke="rgb(77,47,11)" stroke-width="1" opacity="1" d="M 43.5 118 L 47 118.5 L 43.5 119 L 43.5 118 Z " /><path fill="rgb(77,47,11)" stroke="rgb(77,47,11)" stroke-width="1" opacity="1" d="M 24.5 120 L 25 378.5 L 24 378.5 L 24.5 120 Z " /><path fill="rgb(77,47,11)" stroke="rgb(77,47,11)" stroke-width="1" opacity="1" d="M 404.5 186 L 265.5 326 L 404.5 186 Z " /><path fill="rgb(77,47,11)" stroke="rgb(77,47,11)" stroke-width="1" opacity="1" d="M 194.5 188 L 174.5 209 L 194.5 188 Z " /><path fill="rgb(77,47,11)" stroke="rgb(77,47,11)" stroke-width="1" opacity="1" d="M 236.5 188 L 256.5 209 L 236.5 188 Z " /><path fill="rgb(77,47,11)" stroke="rgb(77,47,11)" stroke-width="1" opacity="1" d="M 507.5 214 L 508 220.5 L 507 220.5 L 507.5 214 Z " /><path fill="rgb(77,47,11)" stroke="rgb(77,47,11)" stroke-width="1" opacity="1" d="M 99.5 222 L 293.5 417 L 99.5 222 Z " /><path fill="rgb(77,47,11)" stroke="rgb(77,47,11)" stroke-width="1" opacity="1" d="M 503.5 228 L 497 235.5 L 497 244.5 L 489.5 252 L 488 251.5 L 488 243.5 L 503.5 228 Z " /><path fill="rgb(77,47,11)" stroke="rgb(77,47,11)" stroke-width="1" opacity="1" d="M 230.5 291 L 244.5 306 L 230.5 291 Z " /><path fill="rgb(77,47,11)" stroke="rgb(77,47,11)" stroke-width="1" opacity="1" d="M 396.5 318 L 298.5 417 L 396.5 318 Z " /><path fill="rgb(77,47,11)" stroke="rgb(77,47,11)" stroke-width="1" opacity="1" d="M 24.5 414 L 25 417.5 L 24 417.5 L 24.5 414 Z " /><path fill="rgb(77,47,11)" stroke="rgb(77,47,11)" stroke-width="1" opacity="1" d="M 487.5 415 L 488 419.5 L 487 419.5 L 487.5 415 Z " /><path fill="rgb(77,47,11)" stroke="rgb(77,47,11)" stroke-width="1" opacity="1" d="M 25.5 422 L 26 424.5 L 25 424.5 L 25.5 422 Z " /><path fill="rgb(77,47,11)" stroke="rgb(77,47,11)" stroke-width="1" opacity="1" d="M 40.5 457 L 41.5 459 L 40.5 457 Z " /><path fill="rgb(254,173,0)" stroke="rgb(254,173,0)" stroke-width="1" opacity="0.996078431372549" d="M 297.5 26 L 301 27.5 L 299.5 27 Q 296.5 27.5 297.5 26 Z " /><path fill="rgb(254,173,0)" stroke="rgb(254,173,0)" stroke-width="1" opacity="0.996078431372549" d="M 369.5 96 L 375.5 104 L 376.5 103 L 387.5 114 L 494 219.5 L 489.5 216 L 488.5 217 L 484 218 L 481 233.5 L 304.5 410 L 290.5 413 L 122.5 244 L 136.5 247 L 157.5 249 L 164.5 251 L 193.5 253 L 194.5 254 L 209.5 254 L 213.5 255 L 217.5 259 L 221.5 255 L 232.5 255 L 233.5 256 L 255.5 256 L 262 250.5 L 226 287.5 L 230 291.5 L 229 292.5 L 228 294.5 L 267.5 333 L 351.5 249 L 360 248 L 367 234.5 L 372.5 229 L 374 229.5 L 375 226.5 L 407 193.5 L 403 188.5 L 405 186.5 L 385.5 166 L 395.5 176 L 397 176 L 399 170.5 L 399 168.5 L 398 165.5 L 399 161.5 Q 395.5 160 398 158.5 L 394.5 154 L 392.5 155 Q 390.3 150.8 388 152.5 L 387 138.5 L 382.5 121 L 382 124.5 L 386 139.5 L 387 151.5 L 385 152.5 L 383 136.5 L 379 119.5 L 369.5 96 Z M 377 104 L 377 109 L 378 109 L 377 104 Z M 379 109 L 378 112 L 381 121 L 382 121 L 379 109 Z M 369 238 L 366 242 L 367 243 L 369 240 L 369 238 Z M 366 243 L 363 247 L 365 247 L 366 245 L 366 243 Z " /><path fill="rgb(254,173,0)" stroke="rgb(254,173,0)" stroke-width="1" opacity="0.996078431372549" d="M 2 121 L 10.5 121 L 11 121.5 L 11 210.5 L 15 211.5 L 15 352 L 11 352.5 L 11 425.5 L 14 441.5 L 19 452.5 L 16.5 453 L 15.5 452 L 8 452 L 9 455.5 L 8 455.5 L 2 433.5 L 2 273 L 0 272.5 L 0 220 L 2 219.5 L 2 121 Z " /><path fill="rgb(254,173,0)" stroke="rgb(254,173,0)" stroke-width="1" opacity="0.996078431372549" d="M 501 128 L 509.5 128 L 510 128.5 L 510 214.5 L 507 212.5 L 507 210.5 L 497 200.5 L 498.5 200 L 501 201.5 L 501 128 Z " /><path fill="rgb(254,173,0)" stroke="rgb(254,173,0)" stroke-width="1" opacity="0.996078431372549" d="M 364.5 147 L 323.5 189 L 364.5 147 Z " /><path fill="rgb(254,173,0)" stroke="rgb(254,173,0)" stroke-width="1" opacity="0.996078431372549" d="M 366.5 147 L 383.5 165 L 366.5 147 Z " /><path fill="rgb(254,173,0)" stroke="rgb(254,173,0)" stroke-width="1" opacity="0.996078431372549" d="M 509.5 237 L 510.5 239 L 511.5 237 L 512 280 L 510 280.5 L 510 433.5 L 507 447.5 L 503 458.5 L 493 475.5 L 496 473.5 L 497.5 471 L 497 472.5 L 482.5 490 Q 473.2 498.7 460.5 504 L 460.5 503 L 471 497.5 L 468.5 497 L 457 503.5 L 459 504.5 L 453.5 507 L 453.5 506 L 457 504.5 L 454.5 504 L 441.5 508 L 438 506 L 438 504 L 436 504 Q 437.1 501.3 434.5 502 L 433.5 500 Q 465 493 482 471.5 Q 495.5 456.5 500 432.5 Q 498.5 427 501 425.5 L 501 353 L 497 352.5 L 497 249.5 L 509.5 237 Z " /><path fill="rgb(254,173,0)" stroke="rgb(254,173,0)" stroke-width="1" opacity="0.996078431372549" d="M 511.5 430 L 512 432.5 L 511 432.5 L 511.5 430 Z " /><path fill="rgb(254,173,0)" stroke="rgb(254,173,0)" stroke-width="1" opacity="0.996078431372549" d="M 507.5 449 L 508 451.5 L 504.5 459 L 504 457.5 L 507.5 449 Z " /><path fill="rgb(254,173,0)" stroke="rgb(254,173,0)" stroke-width="1" opacity="0.996078431372549" d="M 9.5 457 L 11 460.5 L 10 460.5 L 9.5 457 Z " /><path fill="rgb(254,173,0)" stroke="rgb(254,173,0)" stroke-width="1" opacity="0.996078431372549" d="M 22.5 460 L 23.5 462 L 22.5 460 Z " /><path fill="rgb(254,173,0)" stroke="rgb(254,173,0)" stroke-width="1" opacity="0.996078431372549" d="M 503.5 460 L 504 461.5 L 498.5 470 L 499 468.5 L 503.5 460 Z " /><path fill="rgb(254,173,0)" stroke="rgb(254,173,0)" stroke-width="1" opacity="0.996078431372549" d="M 24.5 463 L 25.5 465 L 24.5 463 Z " /><path fill="rgb(254,173,0)" stroke="rgb(254,173,0)" stroke-width="1" opacity="0.996078431372549" d="M 26.5 466 L 28.5 469 L 26.5 466 Z " /><path fill="rgb(254,173,0)" stroke="rgb(254,173,0)" stroke-width="1" opacity="0.996078431372549" d="M 30.5 471 L 40.5 482 L 30.5 471 Z " /><path fill="rgb(254,173,0)" stroke="rgb(254,173,0)" stroke-width="1" opacity="0.996078431372549" d="M 43.5 483 L 45.5 486 L 43.5 483 Z " /><path fill="rgb(254,173,0)" stroke="rgb(254,173,0)" stroke-width="1" opacity="0.996078431372549" d="M 47.5 486 L 48.5 488 L 47.5 486 Z " /><path fill="rgb(254,173,0)" stroke="rgb(254,173,0)" stroke-width="1" opacity="0.996078431372549" d="M 50.5 488 L 51.5 490 L 50.5 488 Z " /><path fill="rgb(235,105,0)" stroke="rgb(235,105,0)" stroke-width="1" opacity="0.996078431372549" d="M 111 15 L 279 15.5 L 270.5 24 L 119 24 L 118 48.5 L 115 61.5 Q 108.1 81.1 94.5 94 Q 82.3 106.8 64.5 114 L 49.5 118 L 25.5 119 L 24 120.5 L 24 417.5 L 27 432.5 L 34 448.5 Q 42 462.4 54.5 472 L 70.5 482 L 91.5 488 L 420.5 488 Q 436.9 484.9 449.5 478 L 453.5 483 L 458 485.5 L 440.5 494 L 425.5 497 L 86.5 497 L 71.5 494 L 55.5 487 L 36 471.5 Q 26.7 461.8 21 448.5 L 18 440.5 L 15 424.5 L 15 111 L 40.5 111 L 51.5 109 L 67.5 103 L 84 92 L 85.5 89 L 92 83.5 Q 103.5 70.5 109 51.5 L 111 40.5 L 111 15 Z " /><path fill="rgb(235,105,0)" stroke="rgb(235,105,0)" stroke-width="1" opacity="0.996078431372549" d="M 312.5 15 L 416.5 15 L 417.5 16 L 430.5 16 L 439.5 18 L 453 24.5 L 450 28.5 L 449 33.5 L 450.5 36 L 438.5 29 L 429.5 26 L 417.5 25 L 416.5 24 L 320.5 24 L 312.5 15 Z " /><path fill="rgb(235,105,0)" stroke="rgb(235,105,0)" stroke-width="1" opacity="0.996078431372549" d="M 487.5 58 L 492 66.5 L 497 86.5 L 497 199.5 L 488 191.5 L 488 95.5 L 485 79.5 L 478 64.5 L 484.5 60 L 487 60 L 487.5 58 Z " /><path fill="rgb(235,105,0)" stroke="rgb(235,105,0)" stroke-width="1" opacity="0.996078431372549" d="M 253.5 129 L 246.5 137 L 253.5 129 Z " /><path fill="rgb(235,105,0)" stroke="rgb(235,105,0)" stroke-width="1" opacity="0.996078431372549" d="M 329.5 137 L 321.5 146 L 329.5 137 Z " /><path fill="rgb(235,105,0)" stroke="rgb(235,105,0)" stroke-width="1" opacity="0.996078431372549" d="M 214.5 168 L 212.5 171 L 214.5 168 Z " /><path fill="rgb(235,105,0)" stroke="rgb(235,105,0)" stroke-width="1" opacity="0.996078431372549" d="M 283.5 175 L 286.5 179 L 283.5 175 Z " /><path fill="rgb(235,105,0)" stroke="rgb(235,105,0)" stroke-width="1" opacity="0.996078431372549" d="M 291.5 175 L 288.5 179 L 291.5 175 Z " /><path fill="rgb(235,105,0)" stroke="rgb(235,105,0)" stroke-width="1" opacity="0.996078431372549" d="M 174.5 210 L 179.5 216 L 174.5 210 Z " /><path fill="rgb(235,105,0)" stroke="rgb(235,105,0)" stroke-width="1" opacity="0.996078431372549" d="M 256.5 210 L 249.5 218 L 256.5 210 Z " /><path fill="rgb(235,105,0)" stroke="rgb(235,105,0)" stroke-width="1" opacity="0.996078431372549" d="M 507.5 213 L 510 215.5 L 510 236.5 L 497 249.5 L 497 424.5 L 492 445.5 L 488 454.5 L 483.5 460 L 478 450.5 L 478 447.5 L 483 438.5 L 488 419.5 L 488 252 L 497 244.5 L 497 235.5 Q 507.6 230.1 508 214.5 L 507.5 213 Z " /><path fill="rgb(235,105,0)" stroke="rgb(235,105,0)" stroke-width="1" opacity="0.996078431372549" d="M 489.5 216 L 494 220.5 L 481.5 233 L 481 230.5 L 484 218 L 489.5 216 Z " /><path fill="rgb(235,105,0)" stroke="rgb(235,105,0)" stroke-width="1" opacity="0.996078431372549" d="M 97.5 220 L 98.5 222 L 97.5 220 Z " /><path fill="rgb(235,105,0)" stroke="rgb(235,105,0)" stroke-width="1" opacity="0.996078431372549" d="M 208.5 244 L 214.5 251 L 208.5 244 Z " /><path fill="rgb(235,105,0)" stroke="rgb(235,105,0)" stroke-width="1" opacity="0.996078431372549" d="M 221.5 245 L 216.5 251 L 221.5 245 Z " /><path fill="rgb(235,105,0)" stroke="rgb(235,105,0)" stroke-width="1" opacity="0.996078431372549" d="M 303.5 410 L 297.5 417 Q 291.8 417.8 291 413.5 L 303.5 410 Z " /><path fill="rgb(235,105,0)" stroke="rgb(235,105,0)" stroke-width="1" opacity="0.996078431372549" d="M 8 452 L 19 453 Q 25.9 470.7 40.5 482 Q 56.2 496.3 81.5 501 L 430.5 501 L 432.5 500 L 436 502 L 436 504 L 438 504 Q 436.9 506.7 439.5 506 L 440.5 508 L 426.5 509 L 425.5 510 L 86.5 510 L 63.5 506 L 45.5 498 Q 31.2 489.3 21 476.5 Q 12.1 466.2 8 452 Z " /><path fill="rgb(0,0,0)" stroke="rgb(0,0,0)" stroke-width="1" opacity="1" d="M 293.5 6 Q 300.9 5.1 304.5 8 L 505 208.5 Q 508.7 212.8 507 222.5 L 505 226.5 L 304.5 427 Q 300.5 430.5 291.5 429 L 287.5 427 L 87 226.5 Q 83.3 222.2 85 212.5 L 87 208.5 L 269.5 25 L 287.5 8 L 293.5 6 Z M 294 18 L 96 217 L 97 221 L 294 417 L 299 417 L 496 219 L 496 217 L 396 116 L 299 18 L 294 18 Z " /><path fill="rgb(0,0,0)" stroke="rgb(0,0,0)" stroke-width="1" opacity="1" d="M 43.5 29 L 68.5 29 L 77.5 32 L 82 36.5 Q 85.7 40.8 84 50.5 L 78 59.5 Q 84.5 65.5 86 76.5 L 83.5 80 Q 78.8 82.3 70.5 81 L 66 77.5 L 60.5 66 L 59 66.5 L 59 75.5 L 55.5 80 L 40.5 81 L 36.5 80 L 34 77.5 Q 31.8 72.8 33 64.5 L 32 63.5 L 32 47.5 L 33 46.5 L 33 34.5 L 35.5 31 L 43.5 29 Z M 59 40 L 56 43 Q 55 50 59 51 Q 66 53 70 50 Q 73 49 71 43 L 69 40 L 59 40 Z " /><path fill="rgb(0,0,0)" stroke="rgb(0,0,0)" stroke-width="1" opacity="1" d="M 287.5 96 L 329 136.5 L 287.5 179 L 246 137.5 L 287.5 96 Z M 288 109 L 259 138 L 288 166 L 316 138 L 288 109 Z " /><path fill="rgb(0,0,0)" stroke="rgb(0,0,0)" stroke-width="1" opacity="1" d="M 364.5 148 L 366.5 148 L 404 185.5 L 264.5 326 L 230.5 291 L 226 287.5 L 364.5 148 Z M 366 164 L 242 287 L 265 310 L 388 186 L 366 164 Z " /><path fill="rgb(0,0,0)" stroke="rgb(0,0,0)" stroke-width="1" opacity="1" d="M 215.5 168 L 236 187.5 L 257 209.5 L 215.5 251 L 174 209.5 L 215.5 168 Z M 216 181 L 187 210 L 216 238 L 244 210 L 216 181 Z " /><path fill="rgb(0,0,0)" stroke="rgb(0,0,0)" stroke-width="1" opacity="1" d="M 79.5 303 L 114 372.5 L 111 373.5 L 108.5 378 L 93.5 378 Q 92.5 378 93 382.5 Q 91.5 385.5 90 382.5 L 89.5 381 L 48.5 381 L 48 379.5 Q 45 376.5 45 370.5 L 79.5 303 Z " /><path fill="rgb(249,164,28)" stroke="rgb(249,164,28)" stroke-width="1" opacity="0.996078431372549" d="M 283.5 11 L 280.5 15 L 283.5 11 Z " /><path fill="rgb(249,164,28)" stroke="rgb(249,164,28)" stroke-width="1" opacity="0.996078431372549" d="M 458.5 27 Q 470.1 33.5 478 43.5 L 485 52.5 L 477.5 58 L 474.5 58 L 462.5 44 L 454 38 L 454 34.5 L 458.5 27 Z " /><path fill="rgb(249,164,28)" stroke="rgb(249,164,28)" stroke-width="1" opacity="0.996078431372549" d="M 49.5 28 L 52 28.5 L 49.5 29 L 49.5 28 Z " /><path fill="rgb(249,164,28)" stroke="rgb(249,164,28)" stroke-width="1" opacity="0.996078431372549" d="M 60.5 28 L 66 28.5 L 60.5 29 L 60.5 28 Z " /><path fill="rgb(249,164,28)" stroke="rgb(249,164,28)" stroke-width="1" opacity="0.996078431372549" d="M 32.5 38 L 33 40.5 L 32 40.5 L 32.5 38 Z " /><path fill="rgb(249,164,28)" stroke="rgb(249,164,28)" stroke-width="1" opacity="0.996078431372549" d="M 59.5 40 L 65 40.5 L 59.5 41 L 59.5 40 Z " /><path fill="rgb(249,164,28)" stroke="rgb(249,164,28)" stroke-width="1" opacity="0.996078431372549" d="M 485.5 54 L 486.5 56 L 485.5 54 Z " /><path fill="rgb(249,164,28)" stroke="rgb(249,164,28)" stroke-width="1" opacity="0.996078431372549" d="M 59.5 67 L 60 74.5 L 59 74.5 L 59.5 67 Z " /><path fill="rgb(249,164,28)" stroke="rgb(249,164,28)" stroke-width="1" opacity="0.996078431372549" d="M 90.5 84 L 87.5 88 L 90.5 84 Z " /><path fill="rgb(249,164,28)" stroke="rgb(249,164,28)" stroke-width="1" opacity="0.996078431372549" d="M 289.5 96 L 323.5 131 L 289.5 96 Z " /><path fill="rgb(249,164,28)" stroke="rgb(249,164,28)" stroke-width="1" opacity="0.996078431372549" d="M 247.5 139 L 263.5 156 L 247.5 139 Z " /><path fill="rgb(249,164,28)" stroke="rgb(249,164,28)" stroke-width="1" opacity="0.996078431372549" d="M 511.5 207 L 512 236.5 L 510.5 239 L 510 228.5 L 511 223.5 L 510 222.5 L 510 208.5 L 511.5 207 Z " /><path fill="rgb(249,164,28)" stroke="rgb(249,164,28)" stroke-width="1" opacity="0.996078431372549" d="M 0.5 209 L 2 210.5 L 2 220 L 0 219.5 L 0.5 209 Z " /><path fill="rgb(249,164,28)" stroke="rgb(249,164,28)" stroke-width="1" opacity="0.996078431372549" d="M 0 273 L 2 273.5 L 2 433.5 Q 8.1 468.9 30.5 488 Q 47.9 505.1 77.5 510 L 434.5 510 L 456.5 504 L 471.5 496 L 470.5 498 L 448.5 508 L 435.5 511 L 424.5 511 L 423.5 512 L 88.5 512 L 87.5 511 L 71.5 510 L 55.5 505 Q 34.5 496 21 479.5 L 7 456.5 L 2 441.5 L 1 428.5 L 0 427.5 L 0 273 Z " /><path fill="rgb(249,164,28)" stroke="rgb(249,164,28)" stroke-width="1" opacity="0.996078431372549" d="M 510 280 L 512 280.5 L 512 427.5 L 511 428.5 L 510 441.5 L 506 454.5 Q 501.5 467 493.5 476 L 493 474.5 L 503 458.5 L 507 447.5 L 510 433.5 L 510 280 Z " /><path fill="rgb(249,164,28)" stroke="rgb(249,164,28)" stroke-width="1" opacity="0.996078431372549" d="M 11 352 L 15 352 L 15 360 L 11 360 L 11 352 Z " /><path fill="rgb(249,164,28)" stroke="rgb(249,164,28)" stroke-width="1" opacity="0.996078431372549" d="M 497 353 L 501 353 L 501 360 L 497 360 L 497 353 Z " /><path fill="rgb(249,164,28)" stroke="rgb(249,164,28)" stroke-width="1" opacity="0.996078431372549" d="M 24.5 393 L 25 409.5 L 24 409.5 L 24.5 393 Z " /><path fill="rgb(249,164,28)" stroke="rgb(249,164,28)" stroke-width="1" opacity="0.996078431372549" d="M 481.5 464 L 480.5 466 L 481.5 464 Z " /><path fill="rgb(249,164,28)" stroke="rgb(249,164,28)" stroke-width="1" opacity="0.996078431372549" d="M 476.5 470 L 473.5 474 L 476.5 470 Z " /><path fill="rgb(249,164,28)" stroke="rgb(249,164,28)" stroke-width="1" opacity="0.996078431372549" d="M 481.5 471 L 480.5 473 L 481.5 471 Z " /><path fill="rgb(249,164,28)" stroke="rgb(249,164,28)" stroke-width="1" opacity="0.996078431372549" d="M 39.5 474 L 42.5 478 L 39.5 474 Z " /><path fill="rgb(249,164,28)" stroke="rgb(249,164,28)" stroke-width="1" opacity="0.996078431372549" d="M 475.5 477 L 471.5 482 L 475.5 477 Z " /><path fill="rgb(249,164,28)" stroke="rgb(249,164,28)" stroke-width="1" opacity="0.996078431372549" d="M 492.5 477 L 491.5 479 L 492.5 477 Z " /><path fill="rgb(249,164,28)" stroke="rgb(249,164,28)" stroke-width="1" opacity="0.996078431372549" d="M 467.5 478 L 465.5 481 L 467.5 478 Z " /><path fill="rgb(249,164,28)" stroke="rgb(249,164,28)" stroke-width="1" opacity="0.996078431372549" d="M 462.5 482 L 461.5 484 L 462.5 482 Z " /><path fill="rgb(8,130,166)" stroke="rgb(8,130,166)" stroke-width="1" opacity="1" d="M 286.5 110 L 274.5 123 L 286.5 110 Z " /><path fill="rgb(8,130,166)" stroke="rgb(8,130,166)" stroke-width="1" opacity="1" d="M 288.5 110 L 314.5 137 L 288.5 110 Z " /><path fill="rgb(8,130,166)" stroke="rgb(8,130,166)" stroke-width="1" opacity="1" d="M 260.5 138 L 273.5 152 L 260.5 138 Z " /><path fill="rgb(8,130,166)" stroke="rgb(8,130,166)" stroke-width="1" opacity="1" d="M 365.5 164 L 370.5 170 L 368.5 170 L 365.5 171 L 364.5 170 L 361.5 173 L 355.5 175 L 365.5 164 Z " /><path fill="rgb(8,130,166)" stroke="rgb(8,130,166)" stroke-width="1" opacity="1" d="M 387.5 186 L 379.5 195 L 387.5 186 Z " /><path fill="rgb(8,130,166)" stroke="rgb(8,130,166)" stroke-width="1" opacity="1" d="M 229.5 195 L 242.5 209 L 229.5 195 Z " /><path fill="rgb(8,130,166)" stroke="rgb(8,130,166)" stroke-width="1" opacity="1" d="M 188.5 210 L 200.5 223 L 188.5 210 Z " /><path fill="rgb(8,130,166)" stroke="rgb(8,130,166)" stroke-width="1" opacity="1" d="M 264.5 265 L 264 266.5 L 261 273.5 L 261 275.5 L 251 293.5 L 251.5 295 L 243 287.5 L 264.5 265 Z " /><path fill="rgb(8,130,166)" stroke="rgb(8,130,166)" stroke-width="1" opacity="1" d="M 79.5 283 L 86 287.5 L 89.5 296 Q 91.8 296.8 91 294.5 L 92 294.5 L 112 331.5 L 114 341.5 L 154 416.5 L 165 434.5 L 162 435 L 162.5 437 L 288.5 437 L 289.5 438 L 313.5 438 L 314.5 437 L 420 437 L 420 351.5 L 420.5 351 L 437 351 L 438 441 L 440 441 L 440.5 436 L 482.5 436 L 482 437.5 L 478 447.5 L 465 465 L 449.5 477 Q 437.6 484.8 421 487 L 420.5 455 L 419 456.5 L 419 487 L 357.5 487 L 356.5 488 L 339.5 488 Q 337.3 487.3 338 483.5 L 339 482.5 L 339 453 L 336 454.5 L 336 482.5 L 337 487 L 111.5 487 L 110.5 488 L 95.5 488 L 92 487 L 93 482.5 L 93 452.5 Q 91.5 449.5 90 452.5 L 90 482.5 L 91 487 Q 74.4 484.8 62.5 477 L 47 465 L 34 447.5 L 90.5 447 L 91.5 446 L 93.5 448 L 151.5 448 L 156.5 446 L 423.5 446 L 424.5 445 L 438 445 L 437.5 442 L 422.5 442 L 421.5 441 L 160 441 Q 161.5 437.3 158.5 438 L 126 372.5 L 113 349.5 L 112 343.5 L 107 333.5 L 87.5 297 Q 85.3 297.8 86 295.5 L 79.5 284 L 67 303.5 L 60 318.5 L 60 320.5 L 25.5 387 L 25 377.5 L 56 319.5 L 55 316.5 L 65 297 L 71 294.5 L 69 293.5 L 76.5 284 L 79.5 283 Z " /><path fill="rgb(8,130,166)" stroke="rgb(8,130,166)" stroke-width="1" opacity="1" d="M 281.5 292 L 265.5 309 L 261 305.5 L 262.5 306 L 266.5 307 L 281.5 292 Z " /><path fill="rgb(8,130,166)" stroke="rgb(8,130,166)" stroke-width="1" opacity="1" d="M 132.5 408 L 146 435.5 L 113.5 436 L 112.5 435 L 93.5 435 L 92.5 436 L 29.5 436 L 28 432 L 90.5 432 L 91.5 433 L 93 430 L 111.5 430 L 113.5 432 L 133.5 432 L 138 429.5 L 132.5 408 Z " /><path fill="rgb(8,130,166)" stroke="rgb(8,130,166)" stroke-width="1" opacity="1" d="M 25.5 409 L 26 412.5 L 25 412.5 L 25.5 409 Z " /><path fill="rgb(235,129,22)" stroke="rgb(235,129,22)" stroke-width="1" opacity="0.9803921568627451" d="M 417.5 15 L 423 15.5 L 417.5 16 L 417.5 15 Z " /><path fill="rgb(235,129,22)" stroke="rgb(235,129,22)" stroke-width="1" opacity="0.9803921568627451" d="M 452.5 23 L 458 26 L 454 37 L 449 33.5 L 450 28.5 L 453 24.5 L 452.5 23 Z " /><path fill="rgb(235,129,22)" stroke="rgb(235,129,22)" stroke-width="1" opacity="0.9803921568627451" d="M 455.5 38 L 456.5 40 L 455.5 38 Z " /><path fill="rgb(235,129,22)" stroke="rgb(235,129,22)" stroke-width="1" opacity="0.9803921568627451" d="M 462.5 44 L 464.5 47 L 462.5 44 Z " /><path fill="rgb(235,129,22)" stroke="rgb(235,129,22)" stroke-width="1" opacity="0.9803921568627451" d="M 484.5 53 L 488 57.5 L 487 60 L 484.5 60 L 478.5 64 L 474 58.5 L 477.5 58 L 484.5 53 Z " /><path fill="rgb(235,129,22)" stroke="rgb(235,129,22)" stroke-width="1" opacity="0.9803921568627451" d="M 471.5 54 L 472.5 56 L 471.5 54 Z " /><path fill="rgb(235,129,22)" stroke="rgb(235,129,22)" stroke-width="1" opacity="0.9803921568627451" d="M 79.5 94 L 78.5 96 L 79.5 94 Z " /><path fill="rgb(235,129,22)" stroke="rgb(235,129,22)" stroke-width="1" opacity="0.9803921568627451" d="M 265.5 117 L 254.5 129 L 265.5 117 Z " /><path fill="rgb(235,129,22)" stroke="rgb(235,129,22)" stroke-width="1" opacity="0.9803921568627451" d="M 324.5 131 L 329.5 137 L 324.5 131 Z " /><path fill="rgb(235,129,22)" stroke="rgb(235,129,22)" stroke-width="1" opacity="0.9803921568627451" d="M 320.5 146 L 292.5 175 L 320.5 146 Z " /><path fill="rgb(235,129,22)" stroke="rgb(235,129,22)" stroke-width="1" opacity="0.9803921568627451" d="M 266.5 158 L 282.5 175 L 266.5 158 Z " /><path fill="rgb(235,129,22)" stroke="rgb(235,129,22)" stroke-width="1" opacity="0.9803921568627451" d="M 211.5 171 L 195.5 188 L 211.5 171 Z " /><path fill="rgb(235,129,22)" stroke="rgb(235,129,22)" stroke-width="1" opacity="0.9803921568627451" d="M 180.5 216 L 207.5 244 L 180.5 216 Z " /><path fill="rgb(235,129,22)" stroke="rgb(235,129,22)" stroke-width="1" opacity="0.9803921568627451" d="M 248.5 218 L 222.5 245 L 248.5 218 Z " /><path fill="rgb(235,129,22)" stroke="rgb(235,129,22)" stroke-width="1" opacity="0.9803921568627451" d="M 510.5 223 L 511 227.5 L 510 227.5 L 510.5 223 Z " /><path fill="rgb(235,129,22)" stroke="rgb(235,129,22)" stroke-width="1" opacity="0.9803921568627451" d="M 1.5 437 L 2 440.5 L 1 440.5 L 1.5 437 Z " /><path fill="rgb(235,129,22)" stroke="rgb(235,129,22)" stroke-width="1" opacity="0.9803921568627451" d="M 2.5 442 L 3 444.5 L 2 444.5 L 2.5 442 Z " /><path fill="rgb(235,129,22)" stroke="rgb(235,129,22)" stroke-width="1" opacity="0.9803921568627451" d="M 509.5 442 L 510 445.5 L 508.5 449 L 508 446.5 L 509.5 442 Z " /><path fill="rgb(235,129,22)" stroke="rgb(235,129,22)" stroke-width="1" opacity="0.9803921568627451" d="M 3.5 446 L 10.5 463 L 11.5 461 L 14 465.5 L 12 465.5 L 13.5 468 Q 14.8 465.8 16 468.5 Q 23.3 482.2 35.5 491 Q 45.8 499.7 60 504.5 L 58 505.5 L 66.5 508 L 66.5 507 L 64 506.5 L 66.5 506 L 70 507.5 L 67 508.5 L 70.5 509 L 75.5 508 L 75.5 509 L 71 509.5 L 76 510.5 L 71.5 511 Q 42.9 504.6 26 486.5 L 24 483.5 Q 7.9 469.5 3.5 446 Z M 22 478 L 21 480 L 24 482 L 22 478 Z M 31 488 L 32 490 L 33 490 L 31 488 Z M 40 495 L 41 497 L 42 497 L 40 495 Z M 56 504 L 56 505 L 58 505 L 56 504 Z " /><path fill="rgb(235,129,22)" stroke="rgb(235,129,22)" stroke-width="1" opacity="0.9803921568627451" d="M 477.5 449 L 483.5 460 L 485 459.5 L 468.5 478 L 459.5 485 L 456.5 485 L 451 480.5 L 449 477.5 Q 461.9 469.9 471 458.5 L 477.5 449 Z " /><path fill="rgb(235,129,22)" stroke="rgb(235,129,22)" stroke-width="1" opacity="0.9803921568627451" d="M 34.5 469 L 35.5 471 L 34.5 469 Z " /><path fill="rgb(235,129,22)" stroke="rgb(235,129,22)" stroke-width="1" opacity="0.9803921568627451" d="M 436.5 508 L 440 508.5 L 436.5 509 L 436.5 508 Z " /><path fill="rgb(235,129,22)" stroke="rgb(235,129,22)" stroke-width="1" opacity="0.9803921568627451" d="M 445.5 508 L 448 508.5 L 440.5 511 L 436.5 511 L 436.5 510 Q 442.6 510.6 445.5 508 Z " /><path fill="rgb(235,129,22)" stroke="rgb(235,129,22)" stroke-width="1" opacity="0.9803921568627451" d="M 77.5 509 L 86 509.5 L 77.5 510 L 77.5 509 Z " /><path fill="rgb(235,129,22)" stroke="rgb(235,129,22)" stroke-width="1" opacity="0.9803921568627451" d="M 426.5 509 L 435 509.5 L 426.5 510 L 426.5 509 Z " /><path fill="rgb(235,129,22)" stroke="rgb(235,129,22)" stroke-width="1" opacity="0.9803921568627451" d="M 77.5 511 L 88 511.5 L 77.5 512 L 77.5 511 Z " /><path fill="rgb(235,129,22)" stroke="rgb(235,129,22)" stroke-width="1" opacity="0.9803921568627451" d="M 424.5 511 L 435 511.5 L 424.5 512 L 424.5 511 Z " /><path fill="rgb(5,85,109)" stroke="rgb(5,85,109)" stroke-width="1" opacity="1" d="M 91 121 L 173 121.5 L 164.5 130 L 112 130 L 113 174 L 115 173.5 L 115 165 L 128.5 165 L 112.5 182 L 112 180 L 91 180 L 91 202.5 L 112 183.5 L 91.5 204 L 90 204 L 91 121 Z " /><path fill="rgb(5,85,109)" stroke="rgb(5,85,109)" stroke-width="1" opacity="1" d="M 422.5 121 L 446 121 L 446 147.5 L 428 130.5 L 426 127.5 L 427 126.5 L 422.5 121 Z " /><path fill="rgb(5,85,109)" stroke="rgb(5,85,109)" stroke-width="1" opacity="1" d="M 266.5 130 L 260.5 137 L 266.5 130 Z " /><path fill="rgb(5,85,109)" stroke="rgb(5,85,109)" stroke-width="1" opacity="1" d="M 314.5 138 L 313.5 140 L 314.5 138 Z " /><path fill="rgb(5,85,109)" stroke="rgb(5,85,109)" stroke-width="1" opacity="1" d="M 25 165 L 88 165 L 88 207.5 Q 82.6 210.6 84 220.5 L 89.5 233 L 90.5 231 L 91 237.5 L 92.5 239 L 99.5 240 L 112 252.5 L 113 259.5 L 114.5 261 L 115.5 260 L 123.5 268 L 154.5 295 L 257 397.5 L 244.5 386 L 187.5 336 L 115.5 336 L 114 334.5 L 113 332.5 L 113 306.5 L 112 305.5 L 112 268 L 91 268 L 91 290.5 L 89.5 293 Q 86.8 291.8 88 286.5 L 83.5 282 L 76.5 281 L 72 284.5 L 67 294 L 69 294.5 L 64.5 297 L 25.5 297 L 25.5 296 L 64.5 296 L 65 294 L 25 294 L 25 245 L 88 245 L 88 285.5 L 90 286.5 L 90 248.5 L 91 247.5 L 91 238.5 L 88.5 237 L 87 237.5 L 88 234.5 L 86.5 233 L 74.5 233 L 71.5 234 L 25 219 L 25 165 Z " /><path fill="rgb(5,85,109)" stroke="rgb(5,85,109)" stroke-width="1" opacity="1" d="M 466.5 165 L 486.5 165 L 487 170 L 470.5 170 L 466.5 165 Z " /><path fill="rgb(5,85,109)" stroke="rgb(5,85,109)" stroke-width="1" opacity="1" d="M 469.5 172 L 488 172 L 488 190 L 486.5 190 L 469.5 172 Z M 482 180 L 486 187 L 487 187 L 487 180 L 482 180 Z " /><path fill="rgb(5,85,109)" stroke="rgb(5,85,109)" stroke-width="1" opacity="1" d="M 214.5 182 L 211.5 186 L 214.5 182 Z " /><path fill="rgb(5,85,109)" stroke="rgb(5,85,109)" stroke-width="1" opacity="1" d="M 216.5 182 L 219.5 186 L 216.5 182 Z " /><path fill="rgb(5,85,109)" stroke="rgb(5,85,109)" stroke-width="1" opacity="1" d="M 194.5 202 L 188.5 209 L 194.5 202 Z " /><path fill="rgb(5,85,109)" stroke="rgb(5,85,109)" stroke-width="1" opacity="1" d="M 242.5 210 L 241.5 212 L 242.5 210 Z " /><path fill="rgb(5,85,109)" stroke="rgb(5,85,109)" stroke-width="1" opacity="1" d="M 75.5 234 L 86 236.5 L 82.5 237 L 75.5 235 L 75.5 234 Z " /><path fill="rgb(5,85,109)" stroke="rgb(5,85,109)" stroke-width="1" opacity="1" d="M 216.5 236 L 215.5 238 L 216.5 236 Z " /><path fill="rgb(5,85,109)" stroke="rgb(5,85,109)" stroke-width="1" opacity="1" d="M 283.5 245 L 274.5 255 L 283.5 245 Z " /><path fill="rgb(5,85,109)" stroke="rgb(5,85,109)" stroke-width="1" opacity="1" d="M 485.5 262 L 487 262.5 L 487 311.5 L 488 312.5 L 488 334.5 L 487 336.5 L 488 337.5 L 488 414.5 L 487 414.5 L 487 337 L 441 337 L 441 305.5 L 433.5 312 L 420.5 324 L 420 312.5 L 441 292.5 L 441.5 303 L 485.5 262 Z " /><path fill="rgb(5,85,109)" stroke="rgb(5,85,109)" stroke-width="1" opacity="1" d="M 25 319 L 53 319.5 L 42.5 336 L 25 336 L 25 319 Z " /><path fill="rgb(5,85,109)" stroke="rgb(5,85,109)" stroke-width="1" opacity="1" d="M 416.5 324 L 418.5 330 L 419.5 325 L 420 379.5 L 419 380.5 L 418.5 421 L 416.5 336 L 410.5 342 L 408.5 342 L 398.5 350 L 311.5 430 Q 308 434.5 299.5 434 L 292 429.5 L 301.5 429 L 307.5 425 L 402.5 330 L 407.5 330 L 416.5 324 Z " /><path fill="rgb(5,85,109)" stroke="rgb(5,85,109)" stroke-width="1" opacity="1" d="M 24.5 382 L 25 387.5 L 24 387.5 L 24.5 382 Z " /><path fill="rgb(5,85,109)" stroke="rgb(5,85,109)" stroke-width="1" opacity="1" d="M 33.5 394 L 34 396.5 L 29 414.5 L 29 421 L 89.5 421 Q 90.5 421 90 425.5 L 91.5 429 L 92.5 426 L 93 431 L 90.5 430 L 27 430 L 25 419.5 L 29 408.5 L 30 400.5 L 33.5 394 Z " /><path fill="rgb(5,85,109)" stroke="rgb(5,85,109)" stroke-width="1" opacity="1" d="M 125.5 394 L 134 420.5 L 135 429 L 131.5 430 L 113 430 L 112 424 L 93 424 L 93 412 L 111.5 412 Q 112.6 412.1 112 417.5 L 113 422 L 115.5 421 L 130 421 L 129 418.5 L 129 416.5 L 129 412.5 L 125 398.5 L 125.5 394 Z " /><path fill="rgb(5,85,109)" stroke="rgb(5,85,109)" stroke-width="1" opacity="1" d="M 290.5 435 L 314 435.5 L 311.5 437 L 291.5 437 L 290.5 435 Z " /><path fill="rgb(5,85,109)" stroke="rgb(5,85,109)" stroke-width="1" opacity="1" d="M 52.5 469 L 53.5 471 L 52.5 469 Z " /><path fill="rgb(7,106,136)" stroke="rgb(7,106,136)" stroke-width="1" opacity="1" d="M 273.5 123 L 267.5 130 L 273.5 123 Z " /><path fill="rgb(7,106,136)" stroke="rgb(7,106,136)" stroke-width="1" opacity="1" d="M 312.5 140 L 288.5 165 L 312.5 140 Z " /><path fill="rgb(7,106,136)" stroke="rgb(7,106,136)" stroke-width="1" opacity="1" d="M 274.5 152 L 286.5 165 L 274.5 152 Z " /><path fill="rgb(7,106,136)" stroke="rgb(7,106,136)" stroke-width="1" opacity="1" d="M 91 180 L 111.5 180 L 112 182.5 L 91 202.5 L 91 180 Z " /><path fill="rgb(7,106,136)" stroke="rgb(7,106,136)" stroke-width="1" opacity="1" d="M 481.5 180 L 487 180 L 487 186.5 L 486 186.5 L 481.5 180 Z " /><path fill="rgb(7,106,136)" stroke="rgb(7,106,136)" stroke-width="1" opacity="1" d="M 210.5 186 L 195.5 202 L 210.5 186 Z " /><path fill="rgb(7,106,136)" stroke="rgb(7,106,136)" stroke-width="1" opacity="1" d="M 220.5 186 L 228.5 195 L 220.5 186 Z " /><path fill="rgb(7,106,136)" stroke="rgb(7,106,136)" stroke-width="1" opacity="1" d="M 240.5 212 L 217.5 236 L 240.5 212 Z " /><path fill="rgb(7,106,136)" stroke="rgb(7,106,136)" stroke-width="1" opacity="1" d="M 302.5 226 L 284.5 245 L 302.5 226 Z " /><path fill="rgb(7,106,136)" stroke="rgb(7,106,136)" stroke-width="1" opacity="1" d="M 91.5 232 L 98.5 240 Q 97.3 237.7 92.5 239 L 91 237.5 L 91.5 232 Z " /><path fill="rgb(7,106,136)" stroke="rgb(7,106,136)" stroke-width="1" opacity="1" d="M 74.5 233 L 86.5 233 L 88 234.5 Q 89.1 237.8 86.5 237 L 74.5 234 L 74.5 233 Z " /><path fill="rgb(7,106,136)" stroke="rgb(7,106,136)" stroke-width="1" opacity="1" d="M 91 268 L 112 268 L 112 305.5 L 113 306.5 L 113 332.5 L 115.5 336 L 187.5 336 Q 239.5 379 286.5 427 L 296.5 433 L 303.5 434 L 307.5 433 L 318.5 424 L 398.5 350 L 408.5 342 L 410.5 342 L 416.5 336 L 418.5 421 L 419.5 380 L 420 437 L 314.5 437 L 313.5 438 L 289.5 438 L 288.5 437 L 162 437 Q 160.8 434 164.5 435 L 164 433.5 L 114 341.5 L 112 331.5 L 91.5 294 L 91 296 L 88 294.5 L 88.5 292 L 90 292.5 L 91 290.5 L 91 268 Z M 291 435 L 292 437 L 312 437 L 314 436 L 291 435 Z " /><path fill="rgb(7,106,136)" stroke="rgb(7,106,136)" stroke-width="1" opacity="1" d="M 76.5 281 L 81.5 281 L 88 286.5 L 87.5 290 L 83.5 285 L 79.5 283 L 72 288.5 L 69 293.5 L 71 294.5 L 65 297 L 55 318.5 L 55 320.5 L 25.5 377 L 25 336 L 42.5 336 L 44 334.5 L 53 319.5 L 25 319 L 25 297 L 64.5 297 L 69 294.5 L 67 294 L 74.5 282 L 76.5 281 Z " /><path fill="rgb(7,106,136)" stroke="rgb(7,106,136)" stroke-width="1" opacity="1" d="M 440.5 305 L 441 337 L 487 337 L 487 421.5 L 485 431.5 L 482.5 436 L 440.5 436 L 440 441 L 438 441 L 437 351 L 420 351 L 420 324.5 L 440.5 305 Z " /><path fill="rgb(7,106,136)" stroke="rgb(7,106,136)" stroke-width="1" opacity="1" d="M 24.5 388 L 25 391.5 L 24 391.5 L 24.5 388 Z " /><path fill="rgb(7,106,136)" stroke="rgb(7,106,136)" stroke-width="1" opacity="1" d="M 128.5 400 L 133 410.5 L 138 429.5 L 133.5 432 L 113.5 432 L 111.5 430 L 93 430 L 93 424.5 L 93.5 424 L 112 424 L 113 430 L 131.5 430 L 135 429 L 135 424.5 L 129 406.5 L 128.5 400 Z " /><path fill="rgb(7,106,136)" stroke="rgb(7,106,136)" stroke-width="1" opacity="1" d="M 29.5 402 L 30 404.5 L 25.5 419 L 25 413.5 L 29.5 402 Z " /><path fill="rgb(7,106,136)" stroke="rgb(7,106,136)" stroke-width="1" opacity="1" d="M 27.5 430 L 90.5 430 L 93 431.5 Q 91.8 434.3 90.5 432 L 28.5 432 L 27.5 430 Z " /><path fill="rgb(7,106,136)" stroke="rgb(7,106,136)" stroke-width="1" opacity="1" d="M 91.5 451 L 93 452.5 L 93 482.5 L 91.5 487 L 90 482.5 L 90 452.5 L 91.5 451 Z " /><path fill="rgb(7,106,136)" stroke="rgb(7,106,136)" stroke-width="1" opacity="1" d="M 475.5 451 L 474.5 453 L 475.5 451 Z " /><path fill="rgb(7,106,136)" stroke="rgb(7,106,136)" stroke-width="1" opacity="1" d="M 337.5 453 L 339 453.5 L 339 482.5 L 338 486.5 L 338.5 488 L 336.5 488 L 111 487.5 L 337 487 L 336 482.5 L 336 454.5 L 337.5 453 Z " /><path fill="rgb(7,106,136)" stroke="rgb(7,106,136)" stroke-width="1" opacity="1" d="M 39.5 455 L 40.5 457 L 39.5 455 Z " /><path fill="rgb(7,106,136)" stroke="rgb(7,106,136)" stroke-width="1" opacity="1" d="M 420.5 455 L 421 487 L 419 486.5 L 419 456.5 L 420.5 455 Z " /><path fill="rgb(7,106,136)" stroke="rgb(7,106,136)" stroke-width="1" opacity="1" d="M 469.5 459 L 465.5 464 L 469.5 459 Z " /><path fill="rgb(7,106,136)" stroke="rgb(7,106,136)" stroke-width="1" opacity="1" d="M 43.5 460 L 46.5 464 L 43.5 460 Z " /><path fill="rgb(7,106,136)" stroke="rgb(7,106,136)" stroke-width="1" opacity="1" d="M 48.5 465 L 51.5 469 L 48.5 465 Z " /><path fill="rgb(7,106,136)" stroke="rgb(7,106,136)" stroke-width="1" opacity="1" d="M 463.5 465 L 458.5 471 L 463.5 465 Z " /><path fill="rgb(7,106,136)" stroke="rgb(7,106,136)" stroke-width="1" opacity="1" d="M 56.5 472 L 57.5 474 L 56.5 472 Z " /><path fill="rgb(7,106,136)" stroke="rgb(7,106,136)" stroke-width="1" opacity="1" d="M 455.5 472 L 454.5 474 L 455.5 472 Z " /><path fill="rgb(7,106,136)" stroke="rgb(7,106,136)" stroke-width="1" opacity="1" d="M 357.5 487 L 417 487.5 L 357.5 488 L 357.5 487 Z " /></svg>